0
SECTION
2
HEADER
9
$INSUNITS
70
4
9
$ACADVER
1
AC1014
9
$HANDSEED
5
FFFF
0
ENDSEC
0
SECTION
2
TABLES
0
TABLE
2
VPORT
5
8
100
AcDbSymbolTable
0
ENDTAB
0
TABLE
2
LTYPE
5
5
100
AcDbSymbolTable
0
LTYPE
5
14
100
AcDbSymbolTableRecord
100
AcDbLinetypeTableRecord
2
BYBLOCK
70
0
0
LTYPE
5
15
100
AcDbSymbolTableRecord
100
AcDbLinetypeTableRecord
2
BYLAYER
70
0
0
ENDTAB
0
TABLE
2
LAYER
5
2
100
AcDbSymbolTable
70
2
0
LAYER
5
50
100
AcDbSymbolTableRecord
100
AcDbLayerTableRecord
2
0
70
0
6
CONTINUOUS
0
ENDTAB
0
TABLE
2
STYLE
5
3
100
AcDbSymbolTable
70
1
0
STYLE
5
11
100
AcDbSymbolTableRecord
100
AcDbTextStyleTableRecord
2
STANDARD
70
0
0
ENDTAB
0
TABLE
2
VIEW
5
6
100
AcDbSymbolTable
70
0
0
ENDTAB
0
TABLE
2
UCS
5
7
100
AcDbSymbolTable
70
0
0
ENDTAB
0
TABLE
2
APPID
5
9
100
AcDbSymbolTable
70
2
0
APPID
5
12
100
AcDbSymbolTableRecord
100
AcDbRegAppTableRecord
2
ACAD
70
0
0
ENDTAB
0
TABLE
2
DIMSTYLE
5
A
100
AcDbSymbolTable
70
1
0
ENDTAB
0
TABLE
2
BLOCK_RECORD
5
1
100
AcDbSymbolTable
70
1
0
BLOCK_RECORD
5
1F
100
AcDbSymbolTableRecord
100
AcDbBlockTableRecord
2
*MODEL_SPACE
0
BLOCK_RECORD
5
1B
100
AcDbSymbolTableRecord
100
AcDbBlockTableRecord
2
*PAPER_SPACE
0
ENDTAB
0
ENDSEC
0
SECTION
2
BLOCKS
0
BLOCK
5
20
100
AcDbEntity
100
AcDbBlockBegin
2
*MODEL_SPACE
0
ENDBLK
5
21
100
AcDbEntity
100
AcDbBlockEnd
0
BLOCK
5
1C
100
AcDbEntity
100
AcDbBlockBegin
2
*PAPER_SPACE
0
ENDBLK
5
1D
100
AcDbEntity
100
AcDbBlockEnd
0
ENDSEC
0
SECTION
2
ENTITIES
0
LINE
5
100
100
AcDbEntity
8
0
100
AcDbLine
10
-12.000000000000002
20
0
30
0
11
-12.000000000000002
21
190
31
0
0
LINE
5
101
100
AcDbEntity
8
0
100
AcDbLine
10
0
20
190
30
0
11
7.9380946260698874e-16
21
181.64999999999998
31
0
0
LINE
5
102
100
AcDbEntity
8
0
100
AcDbLine
10
-5.7999999999999838
20
179.95000000000002
30
0
11
1.1102230246251565e-15
21
179.95000000000002
31
0
0
LINE
5
103
100
AcDbEntity
8
0
100
AcDbLine
10
0
20
171.05617510846645
30
0
11
-1.6000000000000014
21
171.05617510846645
31
0
0
LINE
5
104
100
AcDbEntity
8
0
100
AcDbLine
10
-1.6000000000000014
20
171.05617510846645
30
0
11
-1.6000000000000014
21
160.05617510846648
31
0
0
LINE
5
105
100
AcDbEntity
8
0
100
AcDbLine
10
-1.6000000000000014
20
160.05617510846648
30
0
11
0
21
160.05617510846648
31
0
0
LINE
5
106
100
AcDbEntity
8
0
100
AcDbLine
10
0
20
160.05617510846648
30
0
11
7.9380946260698874e-16
21
153.05000000000001
31
0
0
LINE
5
107
100
AcDbEntity
8
0
100
AcDbLine
10
7.8478890053190769e-16
20
153.05000000000001
30
0
11
-5.7999999999999838
21
153.05000000000001
31
0
0
LINE
5
108
100
AcDbEntity
8
0
100
AcDbLine
10
-5.7999999999999838
20
151.34999999999997
30
0
11
1.1102230246251565e-15
21
151.34999999999997
31
0
0
LINE
5
109
100
AcDbEntity
8
0
100
AcDbLine
10
0
20
142.45617510846645
30
0
11
-1.6000000000000014
21
142.45617510846645
31
0
0
LINE
5
110
100
AcDbEntity
8
0
100
AcDbLine
10
-1.6000000000000014
20
142.45617510846645
30
0
11
-1.6000000000000014
21
131.45617510846645
31
0
0
LINE
5
111
100
AcDbEntity
8
0
100
AcDbLine
10
-1.6000000000000014
20
131.45617510846645
30
0
11
0
21
131.45617510846645
31
0
0
LINE
5
112
100
AcDbEntity
8
0
100
AcDbLine
10
0
20
131.45617510846645
30
0
11
7.8478890053190769e-16
21
124.45
31
0
0
LINE
5
113
100
AcDbEntity
8
0
100
AcDbLine
10
7.8478890053190769e-16
20
124.45
30
0
11
-5.7999999999999838
21
124.45
31
0
0
LINE
5
114
100
AcDbEntity
8
0
100
AcDbLine
10
-5.7999999999999838
20
122.74999999999999
30
0
11
1.1102230246251565e-15
21
122.74999999999999
31
0
0
LINE
5
115
100
AcDbEntity
8
0
100
AcDbLine
10
0
20
113.85617510846646
30
0
11
-1.6000000000000014
21
113.85617510846646
31
0
0
LINE
5
116
100
AcDbEntity
8
0
100
AcDbLine
10
-1.6000000000000014
20
113.85617510846646
30
0
11
-1.6000000000000014
21
102.85617510846647
31
0
0
LINE
5
117
100
AcDbEntity
8
0
100
AcDbLine
10
-1.6000000000000014
20
102.85617510846647
30
0
11
0
21
102.85617510846647
31
0
0
LINE
5
118
100
AcDbEntity
8
0
100
AcDbLine
10
0
20
102.85617510846647
30
0
11
7.8478890053190769e-16
21
95.850000000000009
31
0
0
LINE
5
119
100
AcDbEntity
8
0
100
AcDbLine
10
7.8478890053190769e-16
20
95.850000000000009
30
0
11
-5.7999999999999838
21
95.850000000000009
31
0
0
LINE
5
120
100
AcDbEntity
8
0
100
AcDbLine
10
-5.7999999999999838
20
94.149999999999991
30
0
11
1.1102230246251565e-15
21
94.149999999999991
31
0
0
LINE
5
121
100
AcDbEntity
8
0
100
AcDbLine
10
0
20
85.256175108466465
30
0
11
-1.6000000000000014
21
85.256175108466465
31
0
0
LINE
5
122
100
AcDbEntity
8
0
100
AcDbLine
10
-1.6000000000000014
20
85.256175108466465
30
0
11
-1.6000000000000014
21
74.256175108466479
31
0
0
LINE
5
123
100
AcDbEntity
8
0
100
AcDbLine
10
-1.6000000000000014
20
74.256175108466479
30
0
11
0
21
74.256175108466465
31
0
0
LINE
5
124
100
AcDbEntity
8
0
100
AcDbLine
10
0
20
74.256175108466465
30
0
11
7.9380946260698874e-16
21
67.25
31
0
0
LINE
5
125
100
AcDbEntity
8
0
100
AcDbLine
10
7.8478890053190769e-16
20
67.25
30
0
11
-5.7999999999999838
21
67.25
31
0
0
LINE
5
126
100
AcDbEntity
8
0
100
AcDbLine
10
-5.7999999999999838
20
65.549999999999997
30
0
11
1.1102230246251565e-15
21
65.549999999999997
31
0
0
LINE
5
127
100
AcDbEntity
8
0
100
AcDbLine
10
0
20
56.656175108466456
30
0
11
-1.6000000000000014
21
56.656175108466456
31
0
0
LINE
5
128
100
AcDbEntity
8
0
100
AcDbLine
10
-1.6000000000000014
20
56.656175108466456
30
0
11
-1.6000000000000014
21
45.656175108466464
31
0
0
LINE
5
129
100
AcDbEntity
8
0
100
AcDbLine
10
-1.6000000000000014
20
45.656175108466464
30
0
11
0
21
45.656175108466464
31
0
0
LINE
5
130
100
AcDbEntity
8
0
100
AcDbLine
10
0
20
45.656175108466464
30
0
11
7.8478890053190769e-16
21
38.649999999999999
31
0
0
LINE
5
131
100
AcDbEntity
8
0
100
AcDbLine
10
7.8478890053190769e-16
20
38.649999999999999
30
0
11
-5.7999999999999838
21
38.649999999999999
31
0
0
LINE
5
132
100
AcDbEntity
8
0
100
AcDbLine
10
-5.7999999999999838
20
36.949999999999996
30
0
11
1.1102230246251565e-15
21
36.949999999999996
31
0
0
LINE
5
133
100
AcDbEntity
8
0
100
AcDbLine
10
0
20
28.056175108466466
30
0
11
-1.6000000000000014
21
28.056175108466466
31
0
0
LINE
5
134
100
AcDbEntity
8
0
100
AcDbLine
10
-1.6000000000000014
20
28.056175108466466
30
0
11
-1.6000000000000014
21
17.056175108466469
31
0
0
LINE
5
135
100
AcDbEntity
8
0
100
AcDbLine
10
-1.6000000000000014
20
17.056175108466469
30
0
11
0
21
17.056175108466469
31
0
0
LINE
5
136
100
AcDbEntity
8
0
100
AcDbLine
10
0
20
17.056175108466469
30
0
11
7.8478890053190769e-16
21
10.049999999999999
31
0
0
LINE
5
137
100
AcDbEntity
8
0
100
AcDbLine
10
7.8478890053190769e-16
20
10.049999999999999
30
0
11
-5.7999999999999838
21
10.049999999999999
31
0
0
LINE
5
138
100
AcDbEntity
8
0
100
AcDbLine
10
-12.000000000000002
20
190
30
0
11
0
21
190
31
0
0
LINE
5
139
100
AcDbEntity
8
0
100
AcDbLine
10
7.9380946260698874e-16
20
181.64999999999998
30
0
11
-5.7999999999999838
21
181.64999999999998
31
0
0
LINE
5
140
100
AcDbEntity
8
0
100
AcDbLine
10
-5.7999999999999838
20
181.64999999999998
30
0
11
-5.7999999999999838
21
179.95000000000002
31
0
0
LINE
5
141
100
AcDbEntity
8
0
100
AcDbLine
10
1.1102230246251565e-15
20
179.95000000000002
30
0
11
0
21
171.05617510846645
31
0
0
LINE
5
142
100
AcDbEntity
8
0
100
AcDbLine
10
-5.7999999999999838
20
153.05000000000001
30
0
11
-5.7999999999999838
21
151.34999999999997
31
0
0
LINE
5
143
100
AcDbEntity
8
0
100
AcDbLine
10
1.1102230246251565e-15
20
151.34999999999997
30
0
11
0
21
142.45617510846645
31
0
0
LINE
5
144
100
AcDbEntity
8
0
100
AcDbLine
10
-5.7999999999999838
20
124.45
30
0
11
-5.7999999999999838
21
122.74999999999999
31
0
0
LINE
5
145
100
AcDbEntity
8
0
100
AcDbLine
10
1.1102230246251565e-15
20
122.74999999999999
30
0
11
0
21
113.85617510846646
31
0
0
LINE
5
146
100
AcDbEntity
8
0
100
AcDbLine
10
-5.7999999999999838
20
95.850000000000009
30
0
11
-5.7999999999999838
21
94.149999999999991
31
0
0
LINE
5
147
100
AcDbEntity
8
0
100
AcDbLine
10
1.1102230246251565e-15
20
94.149999999999991
30
0
11
0
21
85.256175108466465
31
0
0
LINE
5
148
100
AcDbEntity
8
0
100
AcDbLine
10
-5.7999999999999838
20
67.25
30
0
11
-5.7999999999999838
21
65.549999999999997
31
0
0
LINE
5
149
100
AcDbEntity
8
0
100
AcDbLine
10
1.1102230246251565e-15
20
65.549999999999997
30
0
11
0
21
56.656175108466456
31
0
0
LINE
5
150
100
AcDbEntity
8
0
100
AcDbLine
10
-5.7999999999999838
20
38.649999999999999
30
0
11
-5.7999999999999838
21
36.949999999999996
31
0
0
LINE
5
151
100
AcDbEntity
8
0
100
AcDbLine
10
1.1102230246251565e-15
20
36.949999999999996
30
0
11
0
21
28.056175108466466
31
0
0
LINE
5
152
100
AcDbEntity
8
0
100
AcDbLine
10
-5.7999999999999838
20
10.049999999999999
30
0
11
-5.7999999999999838
21
8.3499999999999996
31
0
0
LINE
5
153
100
AcDbEntity
8
0
100
AcDbLine
10
-5.7999999999999838
20
8.3499999999999996
30
0
11
1.1102230246251565e-15
21
8.3499999999999996
31
0
0
LINE
5
154
100
AcDbEntity
8
0
100
AcDbLine
10
1.1102230246251565e-15
20
8.3499999999999996
30
0
11
0
21
0
31
0
0
LINE
5
155
100
AcDbEntity
8
0
100
AcDbLine
10
0
20
0
30
0
11
-12.000000000000002
21
0
31
0
0
ENDSEC
0
SECTION
2
OBJECTS
0
DICTIONARY
5
C
100
AcDbDictionary
3
ACAD_GROUP
350
D
3
ACAD_MLINESTYLE
350
17
0
DICTIONARY
5
D
100
AcDbDictionary
0
DICTIONARY
5
1A
330
C
100
AcDbDictionary
0
DICTIONARY
5
17
100
AcDbDictionary
0
ENDSEC
0
EOF
