0
SECTION
2
HEADER
9
$INSUNITS
70
4
9
$ACADVER
1
AC1014
9
$HANDSEED
5
FFFF
0
ENDSEC
0
SECTION
2
TABLES
0
TABLE
2
VPORT
5
8
100
AcDbSymbolTable
0
ENDTAB
0
TABLE
2
LTYPE
5
5
100
AcDbSymbolTable
0
LTYPE
5
14
100
AcDbSymbolTableRecord
100
AcDbLinetypeTableRecord
2
BYBLOCK
70
0
0
LTYPE
5
15
100
AcDbSymbolTableRecord
100
AcDbLinetypeTableRecord
2
BYLAYER
70
0
0
ENDTAB
0
TABLE
2
LAYER
5
2
100
AcDbSymbolTable
70
2
0
LAYER
5
50
100
AcDbSymbolTableRecord
100
AcDbLayerTableRecord
2
0
70
0
6
CONTINUOUS
0
ENDTAB
0
TABLE
2
STYLE
5
3
100
AcDbSymbolTable
70
1
0
STYLE
5
11
100
AcDbSymbolTableRecord
100
AcDbTextStyleTableRecord
2
STANDARD
70
0
0
ENDTAB
0
TABLE
2
VIEW
5
6
100
AcDbSymbolTable
70
0
0
ENDTAB
0
TABLE
2
UCS
5
7
100
AcDbSymbolTable
70
0
0
ENDTAB
0
TABLE
2
APPID
5
9
100
AcDbSymbolTable
70
2
0
APPID
5
12
100
AcDbSymbolTableRecord
100
AcDbRegAppTableRecord
2
ACAD
70
0
0
ENDTAB
0
TABLE
2
DIMSTYLE
5
A
100
AcDbSymbolTable
70
1
0
ENDTAB
0
TABLE
2
BLOCK_RECORD
5
1
100
AcDbSymbolTable
70
1
0
BLOCK_RECORD
5
1F
100
AcDbSymbolTableRecord
100
AcDbBlockTableRecord
2
*MODEL_SPACE
0
BLOCK_RECORD
5
1B
100
AcDbSymbolTableRecord
100
AcDbBlockTableRecord
2
*PAPER_SPACE
0
ENDTAB
0
ENDSEC
0
SECTION
2
BLOCKS
0
BLOCK
5
20
100
AcDbEntity
100
AcDbBlockBegin
2
*MODEL_SPACE
0
ENDBLK
5
21
100
AcDbEntity
100
AcDbBlockEnd
0
BLOCK
5
1C
100
AcDbEntity
100
AcDbBlockBegin
2
*PAPER_SPACE
0
ENDBLK
5
1D
100
AcDbEntity
100
AcDbBlockEnd
0
ENDSEC
0
SECTION
2
ENTITIES
0
LWPOLYLINE
5
100
100
AcDbEntity
8
0
100
AcDbPolyline
90
68
70
1
43
0.0
10
-213.30000000000766
20
-1.3322676295501878e-14
10
-213.30000000000766
20
4.9999999999999876
10
-222.30000000000763
20
4.9999999999999876
10
-222.30000000000763
20
-1.3368472995268126e-14
10
-240
20
-1.3322676295501878e-14
10
-240
20
11.999999999999966
10
-226.80000000000001
20
11.999999999999968
10
-226.80000000000001
20
5.7999999999999661
10
-225.09999999999997
20
5.7999999999999634
10
-225.09999999999997
20
11.999999999999964
10
-210.5
20
11.999999999999968
10
-210.49999999999997
20
5.7999999999999687
10
-208.79999999999998
20
5.7999999999999652
10
-208.79999999999998
20
11.999999999999964
10
-194.20000000000002
20
11.999999999999972
10
-194.20000000000002
20
5.7999999999999696
10
-192.5
20
5.7999999999999661
10
-192.5
20
11.999999999999966
10
-177.89999999999998
20
11.999999999999973
10
-177.89999999999998
20
5.7999999999999723
10
-176.19999999999999
20
5.7999999999999687
10
-176.19999999999999
20
11.999999999999968
10
-161.59999999999999
20
11.999999999999973
10
-161.59999999999997
20
5.7999999999999732
10
-159.89999999999998
20
5.7999999999999696
10
-159.89999999999998
20
11.999999999999968
10
-145.30000000000004
20
11.999999999999975
10
-145.29999999999998
20
5.7999999999999741
10
-143.59999999999999
20
5.7999999999999705
10
-143.60000000000002
20
11.999999999999972
10
-129.00000000000003
20
11.999999999999977
10
-129
20
5.7999999999999758
10
-127.30000000000001
20
5.7999999999999732
10
-127.30000000000003
20
11.999999999999973
10
-112.70000000000003
20
11.999999999999979
10
-112.70000000000002
20
5.7999999999999776
10
-111.00000000000001
20
5.7999999999999741
10
-111.00000000000001
20
11.999999999999975
10
-96.40000000000002
20
11.999999999999979
10
-96.399999999999991
20
5.7999999999999794
10
-94.699999999999989
20
5.7999999999999758
10
-94.700000000000003
20
11.999999999999975
10
-80.100000000000037
20
11.999999999999982
10
-80.100000000000023
20
5.7999999999999812
10
-78.400000000000006
20
5.7999999999999776
10
-78.40000000000002
20
11.999999999999977
10
-63.800000000000026
20
11.999999999999984
10
-63.800000000000011
20
5.7999999999999829
10
-62.100000000000009
20
5.7999999999999794
10
-62.100000000000009
20
11.999999999999979
10
-47.500000000000028
20
11.999999999999986
10
-47.500000000000007
20
5.7999999999999838
10
-45.800000000000011
20
5.7999999999999812
10
-45.800000000000011
20
11.999999999999982
10
-31.200000000000028
20
11.999999999999986
10
-31.20000000000001
20
5.7999999999999865
10
-29.500000000000011
20
5.7999999999999829
10
-29.500000000000011
20
11.999999999999982
10
-14.900000000000038
20
11.999999999999989
10
-14.90000000000002
20
5.7999999999999874
10
-13.200000000000003
20
5.7999999999999838
10
-13.200000000000003
20
11.999999999999984
10
0
20
12.000000000000004
10
0
20
0
10
-34.000000000007695
20
-2.2204460492503131e-15
10
-34.000000000007674
20
4.9999999999999982
10
-43.000000000007681
20
4.9999999999999973
10
-43.000000000007681
20
-2.5858944615232228e-15
0
ENDSEC
0
SECTION
2
OBJECTS
0
DICTIONARY
5
C
100
AcDbDictionary
3
ACAD_GROUP
350
D
3
ACAD_MLINESTYLE
350
17
0
DICTIONARY
5
D
100
AcDbDictionary
0
DICTIONARY
5
1A
330
C
100
AcDbDictionary
0
DICTIONARY
5
17
100
AcDbDictionary
0
ENDSEC
0
EOF
