solid ASCII
  facet normal 0.000000e+00 0.000000e+00 1.000000e+00
    outer loop
      vertex   2.400000e+02 1.930000e+02 1.130000e+01
      vertex   0.000000e+00 1.930000e+02 1.130000e+01
      vertex   2.400000e+02 1.900000e+02 1.130000e+01
    endloop
  endfacet
  facet normal 0.000000e+00 0.000000e+00 1.000000e+00
    outer loop
      vertex   2.400000e+02 1.900000e+02 1.130000e+01
      vertex   0.000000e+00 1.930000e+02 1.130000e+01
      vertex   0.000000e+00 1.900000e+02 1.130000e+01
    endloop
  endfacet
  facet normal -1.000000e+00 0.000000e+00 -4.363169e-32
    outer loop
      vertex   0.000000e+00 1.900000e+02 1.130000e+01
      vertex   0.000000e+00 1.930000e+02 1.130000e+01
      vertex   4.930381e-31 1.900000e+02 0.000000e+00
    endloop
  endfacet
  facet normal -1.000000e+00 -1.972152e-32 -3.839588e-32
    outer loop
      vertex   4.930381e-31 1.900000e+02 0.000000e+00
      vertex   0.000000e+00 1.930000e+02 1.130000e+01
      vertex   0.000000e+00 2.150000e+02 0.000000e+00
    endloop
  endfacet
  facet normal -1.000000e+00 0.000000e+00 0.000000e+00
    outer loop
      vertex   0.000000e+00 2.150000e+02 0.000000e+00
      vertex   0.000000e+00 1.930000e+02 1.130000e+01
      vertex   0.000000e+00 2.150000e+02 1.800000e+01
    endloop
  endfacet
  facet normal -1.000000e+00 0.000000e+00 0.000000e+00
    outer loop
      vertex   0.000000e+00 2.150000e+02 1.800000e+01
      vertex   0.000000e+00 1.930000e+02 1.130000e+01
      vertex   0.000000e+00 1.930000e+02 1.430000e+01
    endloop
  endfacet
  facet normal -1.000000e+00 -1.972152e-32 1.172631e-31
    outer loop
      vertex   0.000000e+00 2.150000e+02 1.800000e+01
      vertex   0.000000e+00 1.930000e+02 1.430000e+01
      vertex   4.930381e-31 1.900000e+02 1.800000e+01
    endloop
  endfacet
  facet normal -1.000000e+00 -1.643460e-31 -0.000000e+00
    outer loop
      vertex   4.930381e-31 1.900000e+02 1.800000e+01
      vertex   0.000000e+00 1.930000e+02 1.430000e+01
      vertex   4.930381e-31 1.900000e+02 1.430000e+01
    endloop
  endfacet
  facet normal -0.000000e+00 -1.000000e+00 -0.000000e+00
    outer loop
      vertex   2.400000e+02 1.930000e+02 1.430000e+01
      vertex   0.000000e+00 1.930000e+02 1.430000e+01
      vertex   2.400000e+02 1.930000e+02 1.130000e+01
    endloop
  endfacet
  facet normal 0.000000e+00 -1.000000e+00 0.000000e+00
    outer loop
      vertex   2.400000e+02 1.930000e+02 1.130000e+01
      vertex   0.000000e+00 1.930000e+02 1.430000e+01
      vertex   0.000000e+00 1.930000e+02 1.130000e+01
    endloop
  endfacet
  facet normal 0.000000e+00 0.000000e+00 -1.000000e+00
    outer loop
      vertex   2.400000e+02 1.900000e+02 1.430000e+01
      vertex   4.930381e-31 1.900000e+02 1.430000e+01
      vertex   2.400000e+02 1.930000e+02 1.430000e+01
    endloop
  endfacet
  facet normal -0.000000e+00 0.000000e+00 -1.000000e+00
    outer loop
      vertex   2.400000e+02 1.930000e+02 1.430000e+01
      vertex   4.930381e-31 1.900000e+02 1.430000e+01
      vertex   0.000000e+00 1.930000e+02 1.430000e+01
    endloop
  endfacet
  facet normal 1.000000e+00 -0.000000e+00 0.000000e+00
    outer loop
      vertex   2.400000e+02 1.900000e+02 1.130000e+01
      vertex   2.400000e+02 1.900000e+02 0.000000e+00
      vertex   2.400000e+02 1.930000e+02 1.130000e+01
    endloop
  endfacet
  facet normal 1.000000e+00 0.000000e+00 0.000000e+00
    outer loop
      vertex   2.400000e+02 1.930000e+02 1.130000e+01
      vertex   2.400000e+02 1.900000e+02 0.000000e+00
      vertex   2.400000e+02 2.150000e+02 0.000000e+00
    endloop
  endfacet
  facet normal 1.000000e+00 -0.000000e+00 0.000000e+00
    outer loop
      vertex   2.400000e+02 1.930000e+02 1.130000e+01
      vertex   2.400000e+02 2.150000e+02 0.000000e+00
      vertex   2.400000e+02 2.150000e+02 1.800000e+01
    endloop
  endfacet
  facet normal 1.000000e+00 0.000000e+00 0.000000e+00
    outer loop
      vertex   2.400000e+02 1.930000e+02 1.130000e+01
      vertex   2.400000e+02 2.150000e+02 1.800000e+01
      vertex   2.400000e+02 1.930000e+02 1.430000e+01
    endloop
  endfacet
  facet normal 1.000000e+00 0.000000e+00 -0.000000e+00
    outer loop
      vertex   2.400000e+02 1.930000e+02 1.430000e+01
      vertex   2.400000e+02 2.150000e+02 1.800000e+01
      vertex   2.400000e+02 1.900000e+02 1.800000e+01
    endloop
  endfacet
  facet normal 1.000000e+00 0.000000e+00 0.000000e+00
    outer loop
      vertex   2.400000e+02 1.930000e+02 1.430000e+01
      vertex   2.400000e+02 1.900000e+02 1.800000e+01
      vertex   2.400000e+02 1.900000e+02 1.430000e+01
    endloop
  endfacet
  facet normal -0.000000e+00 -1.000000e+00 -0.000000e+00
    outer loop
      vertex   2.400000e+02 1.900000e+02 1.130000e+01
      vertex   0.000000e+00 1.900000e+02 1.130000e+01
      vertex   2.400000e+02 1.900000e+02 0.000000e+00
    endloop
  endfacet
  facet normal 0.000000e+00 -1.000000e+00 0.000000e+00
    outer loop
      vertex   2.400000e+02 1.900000e+02 0.000000e+00
      vertex   0.000000e+00 1.900000e+02 1.130000e+01
      vertex   4.930381e-31 1.900000e+02 0.000000e+00
    endloop
  endfacet
  facet normal 0.000000e+00 -1.000000e+00 0.000000e+00
    outer loop
      vertex   4.930381e-31 1.900000e+02 1.430000e+01
      vertex   2.400000e+02 1.900000e+02 1.430000e+01
      vertex   4.930381e-31 1.900000e+02 1.800000e+01
    endloop
  endfacet
  facet normal 0.000000e+00 -1.000000e+00 0.000000e+00
    outer loop
      vertex   4.930381e-31 1.900000e+02 1.800000e+01
      vertex   2.400000e+02 1.900000e+02 1.430000e+01
      vertex   2.400000e+02 1.900000e+02 1.800000e+01
    endloop
  endfacet
  facet normal 0.000000e+00 1.000000e+00 -0.000000e+00
    outer loop
      vertex   2.400000e+02 2.150000e+02 0.000000e+00
      vertex   0.000000e+00 2.150000e+02 0.000000e+00
      vertex   2.400000e+02 2.150000e+02 1.800000e+01
    endloop
  endfacet
  facet normal 0.000000e+00 1.000000e+00 0.000000e+00
    outer loop
      vertex   2.400000e+02 2.150000e+02 1.800000e+01
      vertex   0.000000e+00 2.150000e+02 0.000000e+00
      vertex   0.000000e+00 2.150000e+02 1.800000e+01
    endloop
  endfacet
  facet normal 0.000000e+00 0.000000e+00 1.000000e+00
    outer loop
      vertex   2.400000e+02 2.150000e+02 1.800000e+01
      vertex   0.000000e+00 2.150000e+02 1.800000e+01
      vertex   2.400000e+02 1.900000e+02 1.800000e+01
    endloop
  endfacet
  facet normal 0.000000e+00 0.000000e+00 1.000000e+00
    outer loop
      vertex   2.400000e+02 1.900000e+02 1.800000e+01
      vertex   0.000000e+00 2.150000e+02 1.800000e+01
      vertex   4.930381e-31 1.900000e+02 1.800000e+01
    endloop
  endfacet
  facet normal 0.000000e+00 0.000000e+00 -1.000000e+00
    outer loop
      vertex   0.000000e+00 2.150000e+02 0.000000e+00
      vertex   2.400000e+02 2.150000e+02 0.000000e+00
      vertex   4.930381e-31 1.900000e+02 0.000000e+00
    endloop
  endfacet
  facet normal 0.000000e+00 0.000000e+00 -1.000000e+00
    outer loop
      vertex   4.930381e-31 1.900000e+02 0.000000e+00
      vertex   2.400000e+02 2.150000e+02 0.000000e+00
      vertex   2.400000e+02 1.900000e+02 0.000000e+00
    endloop
  endfacet
endsolid
