solid ASCII
  facet normal 0.000000e+00 -0.000000e+00 1.000000e+00
    outer loop
      vertex   0.000000e+00 -3.000000e+00 1.130000e+01
      vertex   0.000000e+00 1.930000e+02 1.130000e+01
      vertex   -3.000000e+00 -3.000000e+00 1.130000e+01
    endloop
  endfacet
  facet normal 0.000000e+00 -0.000000e+00 1.000000e+00
    outer loop
      vertex   -3.000000e+00 -3.000000e+00 1.130000e+01
      vertex   0.000000e+00 1.930000e+02 1.130000e+01
      vertex   -3.000000e+00 1.930000e+02 1.130000e+01
    endloop
  endfacet
  facet normal -0.000000e+00 -1.000000e+00 -0.000000e+00
    outer loop
      vertex   0.000000e+00 1.930000e+02 1.430000e+01
      vertex   -3.000000e+00 1.930000e+02 1.430000e+01
      vertex   0.000000e+00 1.930000e+02 1.130000e+01
    endloop
  endfacet
  facet normal 0.000000e+00 -1.000000e+00 0.000000e+00
    outer loop
      vertex   0.000000e+00 1.930000e+02 1.130000e+01
      vertex   -3.000000e+00 1.930000e+02 1.430000e+01
      vertex   -3.000000e+00 1.930000e+02 1.130000e+01
    endloop
  endfacet
  facet normal -2.220446e-15 1.000000e+00 0.000000e+00
    outer loop
      vertex   0.000000e+00 -3.000000e+00 1.130000e+01
      vertex   -3.000000e+00 -3.000000e+00 1.130000e+01
      vertex   0.000000e+00 -3.000000e+00 1.430000e+01
    endloop
  endfacet
  facet normal -2.220446e-15 1.000000e+00 0.000000e+00
    outer loop
      vertex   0.000000e+00 -3.000000e+00 1.430000e+01
      vertex   -3.000000e+00 -3.000000e+00 1.130000e+01
      vertex   -3.000000e+00 -3.000000e+00 1.430000e+01
    endloop
  endfacet
  facet normal 1.000000e+00 3.172066e-17 0.000000e+00
    outer loop
      vertex   -3.000000e+00 1.930000e+02 1.430000e+01
      vertex   -3.000000e+00 -3.000000e+00 1.430000e+01
      vertex   -3.000000e+00 1.930000e+02 1.130000e+01
    endloop
  endfacet
  facet normal 1.000000e+00 3.172066e-17 0.000000e+00
    outer loop
      vertex   -3.000000e+00 1.930000e+02 1.130000e+01
      vertex   -3.000000e+00 -3.000000e+00 1.430000e+01
      vertex   -3.000000e+00 -3.000000e+00 1.130000e+01
    endloop
  endfacet
  facet normal -0.000000e+00 -0.000000e+00 -1.000000e+00
    outer loop
      vertex   0.000000e+00 1.930000e+02 1.430000e+01
      vertex   0.000000e+00 -3.000000e+00 1.430000e+01
      vertex   -3.000000e+00 1.930000e+02 1.430000e+01
    endloop
  endfacet
  facet normal 0.000000e+00 0.000000e+00 -1.000000e+00
    outer loop
      vertex   -3.000000e+00 1.930000e+02 1.430000e+01
      vertex   0.000000e+00 -3.000000e+00 1.430000e+01
      vertex   -3.000000e+00 -3.000000e+00 1.430000e+01
    endloop
  endfacet
  facet normal 0.000000e+00 1.000000e+00 -0.000000e+00
    outer loop
      vertex   0.000000e+00 2.150000e+02 0.000000e+00
      vertex   -2.500000e+01 2.150000e+02 0.000000e+00
      vertex   0.000000e+00 2.150000e+02 1.800000e+01
    endloop
  endfacet
  facet normal 0.000000e+00 1.000000e+00 0.000000e+00
    outer loop
      vertex   0.000000e+00 2.150000e+02 1.800000e+01
      vertex   -2.500000e+01 2.150000e+02 0.000000e+00
      vertex   -2.500000e+01 2.150000e+02 1.800000e+01
    endloop
  endfacet
  facet normal 1.000000e+00 0.000000e+00 0.000000e+00
    outer loop
      vertex   0.000000e+00 -3.000000e+00 1.430000e+01
      vertex   0.000000e+00 -2.500000e+01 1.800000e+01
      vertex   0.000000e+00 -3.000000e+00 1.130000e+01
    endloop
  endfacet
  facet normal 1.000000e+00 0.000000e+00 0.000000e+00
    outer loop
      vertex   0.000000e+00 -3.000000e+00 1.130000e+01
      vertex   0.000000e+00 -2.500000e+01 1.800000e+01
      vertex   0.000000e+00 -2.500000e+01 0.000000e+00
    endloop
  endfacet
  facet normal 1.000000e+00 0.000000e+00 0.000000e+00
    outer loop
      vertex   0.000000e+00 -3.000000e+00 1.130000e+01
      vertex   0.000000e+00 -2.500000e+01 0.000000e+00
      vertex   0.000000e+00 2.150000e+02 0.000000e+00
    endloop
  endfacet
  facet normal 1.000000e+00 0.000000e+00 -0.000000e+00
    outer loop
      vertex   0.000000e+00 -3.000000e+00 1.430000e+01
      vertex   0.000000e+00 1.930000e+02 1.430000e+01
      vertex   0.000000e+00 -2.500000e+01 1.800000e+01
    endloop
  endfacet
  facet normal 1.000000e+00 -0.000000e+00 0.000000e+00
    outer loop
      vertex   0.000000e+00 -2.500000e+01 1.800000e+01
      vertex   0.000000e+00 1.930000e+02 1.430000e+01
      vertex   0.000000e+00 2.150000e+02 1.800000e+01
    endloop
  endfacet
  facet normal 1.000000e+00 0.000000e+00 0.000000e+00
    outer loop
      vertex   0.000000e+00 2.150000e+02 1.800000e+01
      vertex   0.000000e+00 1.930000e+02 1.430000e+01
      vertex   0.000000e+00 1.930000e+02 1.130000e+01
    endloop
  endfacet
  facet normal 1.000000e+00 0.000000e+00 0.000000e+00
    outer loop
      vertex   0.000000e+00 2.150000e+02 1.800000e+01
      vertex   0.000000e+00 1.930000e+02 1.130000e+01
      vertex   0.000000e+00 2.150000e+02 0.000000e+00
    endloop
  endfacet
  facet normal 1.000000e+00 0.000000e+00 0.000000e+00
    outer loop
      vertex   0.000000e+00 2.150000e+02 0.000000e+00
      vertex   0.000000e+00 1.930000e+02 1.130000e+01
      vertex   0.000000e+00 -3.000000e+00 1.130000e+01
    endloop
  endfacet
  facet normal 0.000000e+00 -1.000000e+00 0.000000e+00
    outer loop
      vertex   -2.500000e+01 -2.500000e+01 0.000000e+00
      vertex   0.000000e+00 -2.500000e+01 0.000000e+00
      vertex   -2.500000e+01 -2.500000e+01 1.800000e+01
    endloop
  endfacet
  facet normal 0.000000e+00 -1.000000e+00 0.000000e+00
    outer loop
      vertex   -2.500000e+01 -2.500000e+01 1.800000e+01
      vertex   0.000000e+00 -2.500000e+01 0.000000e+00
      vertex   0.000000e+00 -2.500000e+01 1.800000e+01
    endloop
  endfacet
  facet normal -1.000000e+00 0.000000e+00 0.000000e+00
    outer loop
      vertex   -2.500000e+01 2.150000e+02 0.000000e+00
      vertex   -2.500000e+01 -2.500000e+01 0.000000e+00
      vertex   -2.500000e+01 2.150000e+02 1.800000e+01
    endloop
  endfacet
  facet normal -1.000000e+00 -0.000000e+00 0.000000e+00
    outer loop
      vertex   -2.500000e+01 2.150000e+02 1.800000e+01
      vertex   -2.500000e+01 -2.500000e+01 0.000000e+00
      vertex   -2.500000e+01 -2.500000e+01 1.800000e+01
    endloop
  endfacet
  facet normal 0.000000e+00 0.000000e+00 1.000000e+00
    outer loop
      vertex   -2.500000e+01 -2.500000e+01 1.800000e+01
      vertex   0.000000e+00 -2.500000e+01 1.800000e+01
      vertex   -2.500000e+01 2.150000e+02 1.800000e+01
    endloop
  endfacet
  facet normal -0.000000e+00 0.000000e+00 1.000000e+00
    outer loop
      vertex   -2.500000e+01 2.150000e+02 1.800000e+01
      vertex   0.000000e+00 -2.500000e+01 1.800000e+01
      vertex   0.000000e+00 2.150000e+02 1.800000e+01
    endloop
  endfacet
  facet normal 0.000000e+00 0.000000e+00 -1.000000e+00
    outer loop
      vertex   -2.500000e+01 2.150000e+02 0.000000e+00
      vertex   0.000000e+00 2.150000e+02 0.000000e+00
      vertex   -2.500000e+01 -2.500000e+01 0.000000e+00
    endloop
  endfacet
  facet normal 0.000000e+00 0.000000e+00 -1.000000e+00
    outer loop
      vertex   -2.500000e+01 -2.500000e+01 0.000000e+00
      vertex   0.000000e+00 2.150000e+02 0.000000e+00
      vertex   0.000000e+00 -2.500000e+01 0.000000e+00
    endloop
  endfacet
endsolid
